<?xml version="1.0" encoding="UTF-8"?>
<svg xmlns="http://www.w3.org/2000/svg" viewBox="0 0 130 50">
  <defs>
    <style>
      .cls-1 {
        fill: #fff;
      }

      .cls-2 {
        fill: #d2001e;
      }
    </style>
  </defs>
  <rect class="cls-2" width="130" height="50"/>
  <g id="Capa_1" data-name="Capa 1">
    <path class="cls-1" d="M58.37,21.92h-1.19c0,.46.02.91,0,1.36-.01.27-.05.56-.14.81-.68,1.95-1.38,3.9-2.06,5.85-.07.19-.16.25-.36.24-.37-.02-.74,0-1.11-.01-.09,0-.21-.09-.24-.16-.75-2.07-1.49-4.14-2.22-6.21-.04-.1-.04-.22-.04-.33,0-.51,0-1.01,0-1.54h-1.17v8.25h-4.58v-10.77h.3c2.35,0,4.7,0,7.06,0,.23,0,.31.07.36.29.19.93.41,1.86.6,2.79.05.22.13.29.36.29.63-.01.62,0,.75-.62.19-.9.39-1.81.59-2.73h7.65v10.75h-4.55v-8.27Z"/>
    <path class="cls-1" d="M43.7,27.83c0,.77,0,1.49,0,2.2,0,.05-.09.11-.15.15-.02.02-.07,0-.1,0-4.71,0-9.43,0-14.14.01-.06,0-.12,0-.2,0v-10.74c.1,0,.2-.01.29-.01,2.63,0,5.27-.02,7.9-.02,2.04,0,4.07,0,6.11,0,.24,0,.32.06.31.3-.02.62,0,1.24,0,1.86,0,.09,0,.17-.01.28h-9.85v1.85h8.98v2.13h-8.99v2h9.87Z"/>
    <path class="cls-1" d="M92.95,24.42c.47,0,.91.01,1.36,0,.55-.02,1.1-.05,1.65-.08.22-.01.35-.12.35-.34,0-.59,0-1.19,0-1.78,0-.24-.17-.33-.38-.34-.31-.02-.63-.06-.94-.06-1,0-2,0-3,0-.06,0-.12,0-.2.02v8.31h-4.97c-.03-.35-.03-.64.22-.96,2.07-2.62,2.02-6.16-.09-8.73-.08-.1-.12-.24-.13-.37-.02-.2,0-.4,0-.63.1,0,.2-.01.29-.01,3.63,0,7.27,0,10.9,0,.61,0,1.22.08,1.79.34.6.28.91.77.98,1.39.15,1.35.19,2.71-.04,4.05-.18,1.06-.77,1.55-1.92,1.57-1.92.05-3.84.02-5.76.03-.03,0-.05-.01-.1-.02v-2.36Z"/>
    <path class="cls-1" d="M76.57,19.44c.02.4-.03.85-.03.85,0,0-.9,1.15-1.11,1.51,0,0,.01,0-.16,0-.91,0-1.83,0-2.74,0h-.31v8.32h-4.52v-8.31h-3.2v-2.38h12.08Z"/>
    <path class="cls-1" d="M81.03,28.77c.34,0,.66,0,.97,0,.17,0,.16-.12.17-.24.1-1.26.71-2.19,1.8-2.81.48-.27,1.01-.4,1.56-.4.48,0,.96,0,1.44,0-.06,2.22-1.88,4.57-4.48,4.9-1.73.22-3.35-.11-4.67-1.39-.98-.96-1.57-2.1-1.73-3.51.18,0,.33,0,.48,0,.61.03,1.24-.01,1.83.11,1.46.3,2.51,1.59,2.59,3.09,0,.07.01.14.02.25Z"/>
    <path class="cls-1" d="M81.05,20.97c-.05.31-.08.59-.15.86-.39,1.53-1.74,2.58-3.32,2.59-.48,0-.96,0-1.44,0,.16-2.31,2.26-5.09,5.6-5,3.26.08,5.18,2.78,5.26,4.99-1.26.04-2.52.14-3.57-.77-.74-.64-1.19-1.44-1.25-2.42-.01-.18-.06-.25-.25-.24-.29.01-.58,0-.88,0Z"/>
  </g>
</svg>